<?xml version="1.0" encoding="UTF-8" standalone="no"?>
<svg
   version="1.1"
   id="Layer_1"
   x="0px"
   y="0px"
   width="100%"
   viewBox="0 0 2550 1650"
   enable-background="new 0 0 2550 1650"
   xml:space="preserve"
   sodipodi:docname="upang_logo_only.svg"
   inkscape:version="1.1.2 (0a00cf5339, 2022-02-04)"
   xmlns:inkscape="http://www.inkscape.org/namespaces/inkscape"
   xmlns:sodipodi="http://sodipodi.sourceforge.net/DTD/sodipodi-0.dtd"
   xmlns="http://www.w3.org/2000/svg"
   xmlns:svg="http://www.w3.org/2000/svg"><defs
   id="defs2211" /><sodipodi:namedview
   id="namedview2209"
   pagecolor="#ffffff"
   bordercolor="#000000"
   borderopacity="0.25"
   inkscape:pageshadow="2"
   inkscape:pageopacity="0.0"
   inkscape:pagecheckerboard="0"
   showgrid="false"
   inkscape:zoom="0.18620497"
   inkscape:cx="1302.3283"
   inkscape:cy="1127.7895"
   inkscape:window-width="1366"
   inkscape:window-height="740"
   inkscape:window-x="0"
   inkscape:window-y="0"
   inkscape:window-maximized="1"
   inkscape:current-layer="Layer_1" />


<path
   fill="#cdaf03"
   opacity="1"
   stroke="none"
   d="m 1584.3259,1306.1109 c 0,0 -1.3654,1.0868 -1.3654,1.0868 0,0 -1.7402,-0.1262 -3.2502,-2.3298 -8.3356,-4.8216 -15.1608,-7.4397 -23.3169,-11.0792 -8.8327,-3.0948 -16.3344,-5.1681 -25.5967,-7.9961 -45.4267,-8.6628 -88.9589,-17.4538 -132.8179,-24.0836 -20.0614,-3.0326 -40.7661,-1.8094 -63.1197,-2.8185 -9.7902,-0.656 -17.6395,-1.0094 -27.8197,-1.942 -99.4868,-5.7512 -194.0649,8.649 -286.6486,37.4251 -7.3623,2.2882 -13.6958,7.8863 -20.5073,11.9462 0,0 0.1179,-0.3465 -0.9836,-0.7338 -1.9735,-0.5066 -2.8453,-0.6257 -5.3371,-0.5541 -3.9592,2.2141 -6.2985,4.2375 -8.6375,6.2609 0,0 0.1303,-0.3344 -1.0048,-0.6675 -2.0219,-0.4314 -2.9082,-0.5297 -5.3244,-0.5217 -4.338,1.26 -7.1469,2.4137 -10.7553,3.7723 -0.8001,0.2049 -2.3797,0.736 -3.8514,1.0011 -4.0042,1.7657 -6.5363,3.2663 -10.9922,4.9666 -13.2483,1.6752 -25.44193,13.1876 -35.35977,-2.2748 -14.18174,-22.11 -28.13414,-44.367 -43.29705,-68.3194 10.42452,-5.6424 18.04956,-10.3648 26.15181,-14.0334 18.07476,-8.1842 36.38771,-15.8423 56.50551,-23.9345 74.4501,-23.9724 148.1085,-42.7627 223.7686,-54.0982 88.4264,-13.2481 176.3245,-13.6522 264.4101,2.7015 92.6509,17.2012 181.3415,46.0044 265.963,88.8231 -4.7311,12.1486 -9.3413,22.59 -13.9518,33.0314 0,0 -0.1416,-0.5113 -1.411,0.1622 -1.9574,3.6863 -2.6457,6.6991 -3.3338,9.7119 0,0 -0.5792,-0.081 -1.9702,0.3522 -2.1267,2.5876 -2.862,4.7418 -3.5977,6.8961 0,0 -0.087,-0.3529 -1.7334,0.059 -11.1134,8.9673 -18.8559,18.4076 -17.9912,32.2648 0,0 -0.2839,-0.3717 -1.4996,-0.7513 -2.188,-0.1603 -3.1607,0.059 -5.9726,0.3917 -8.5621,-2.7064 -15.128,-6.0079 -22.0377,-8.2499 -17.6898,-5.7399 -35.5328,-11.0084 -53.3145,-16.4653 z"
   id="path6"
   style="stroke-width:2.48842" />
<path
   fill="#ccaf06"
   opacity="1"
   stroke="none"
   d="m 1531.9379,332.90736 c 0,4e-5 0.3563,0.0512 0.8976,-1.73946 0.5927,-3.15143 0.6437,-4.51219 0.1228,-7.52929 -13.899,-12.35031 -27.647,-22.14706 -45.6726,-22.83499 0,0 0.3026,-0.21251 0.5144,-1.80976 -6.1178,-10.13 -12.5208,-18.60972 -18.7644,-27.2049 -25.04,-34.47033 -42.3083,-72.12725 -46.4005,-115.3635 0.5142,-0.41891 1.543,-1.25665 2.7602,-0.16954 7.885,10.92361 14.5527,20.76014 21.8776,32.14801 26.9383,37.69775 62.8168,60.554 104.5656,74.10874 46.3176,15.03808 93.1456,28.50546 141.0784,43.73487 9.4431,5.14485 17.5155,9.30108 25.6819,13.26314 38.6076,18.73164 72.6961,43.65999 95.6917,80.15784 42.1537,66.90484 49.2779,135.50031 4.0048,204.69988 -3.0431,4.65147 -4.3823,10.41756 -6.5142,15.66521 0,0 -0.1709,-0.43415 -1.3271,-0.13807 -2.1051,1.85444 -3.0543,3.41275 -4.0033,4.971 0,0 -0.06,-0.51658 -1.1303,-0.0907 -2.0063,1.96561 -2.9416,3.50537 -3.8771,5.04519 0,-5e-5 -0.01,-0.52836 -1.4126,-0.0919 -24.9063,17.37174 -48.4084,34.30701 -72.5976,50.40398 -0.6871,-0.83835 -2.1619,-2.42785 -2.1018,-3.53792 0.054,-2.63532 0.4016,-4.0752 1.1036,-5.4296 1.4362,-1.60143 2.8724,-3.2029 7.1138,-6.17802 6.7669,-4.12669 11.4804,-6.2176 14.5776,-9.73274 42.6227,-48.369 50.755,-104.79044 38.0732,-167.76134 -7.574,-17.24921 -12.9259,-34.21767 -22.8976,-47.79291 -35.1656,-47.87373 -84.8605,-73.91004 -142.6488,-89.55389 -13.5712,-5.60754 -16.573,2.5094 -20.8852,11.34715 -12.5393,25.69654 -26.2925,50.79793 -39.1361,76.35071 -3.5346,7.03172 -5.5507,14.82659 -8.2639,22.27131 0,-4e-5 -0.077,-0.28671 -1.654,-0.26655 -6.2052,4.49196 -10.9387,8.86101 -15.4441,13.45333 -19.4867,19.86168 -38.6866,40.01231 -58.5171,59.52289 -4.5175,4.44449 -11.131,6.7584 -16.7798,10.05301 -1.2667,-1.60679 -2.5334,-3.21355 -3.8004,-4.82033 3.9334,-5.7506 8.3389,-11.2422 11.6745,-17.32063 3.7573,-6.84578 6.5506,-14.22037 9.763,-21.36501 0,0 0.064,0.28444 1.6673,0.33733 21.5786,-15.7929 36.6544,-34.98969 42.8487,-60.26019 0,0 0.1436,0.35145 1.427,-0.29473 2.0365,-3.64423 2.7898,-6.64226 3.5429,-9.64027 0,0 0.2125,0.30961 1.7311,-0.26431 19.7075,-28.85377 20.6652,-58.66645 8.701,-90.97899 -2.3521,-2.73172 -3.9712,-4.04788 -5.5902,-5.36398 z"
   id="path8"
   style="stroke-width:2.48842" />


<path
   fill="#ccaf06"
   opacity="1"
   stroke="none"
   d="m 1378.5237,860.38607 c 0,0 -0.3885,-0.012 -0.4219,1.75718 14.0809,30.73717 39.1679,48.23638 66.0084,63.25803 32.7453,18.32658 67.9668,30.47251 104.6428,38.52616 9.241,2.02928 18.1571,5.53971 31.4066,9.67558 -11.5108,13.15374 -20.2334,22.73189 -28.5063,32.68408 -8.4966,10.2215 -18.2725,12.7945 -30.9418,8.1949 -12.4103,-4.5055 -25.3323,-7.5999 -39.6131,-12.1647 -16.045,-6.94121 -30.6378,-12.73987 -44.944,-19.17546 -44.7417,-20.12637 -87.4194,-43.87055 -120.8804,-80.49228 -44.8577,-49.09495 -53.7294,-101.82336 -23.1108,-161.91892 9.666,-18.9717 22.5832,-36.5148 35.5997,-53.49495 17.0751,-22.27432 36.0888,-43.05431 53.4695,-65.10703 5.2614,-6.67564 7.8722,-15.44016 11.6969,-23.24791 0,-8e-5 0.1115,0.28987 1.9356,0.42116 7.886,-4.9178 13.9478,-9.96692 19.9857,-12.41028 -0.4261,9.35903 -0.829,16.11231 -1.2317,22.86559 0,0 -0.6124,-0.62981 -2.0802,-0.40245 -3.5965,5.24708 -5.7253,10.26679 -7.8538,15.28654 0,4e-5 -0.5914,-0.12637 -1.9915,0.3232 -2.0309,2.63851 -2.6615,4.82743 -3.2921,7.0163 0,4e-5 -0.1966,-0.46275 -1.8271,0.0146 -38.0681,51.55857 -54.9294,108.23157 -46.1737,170.6528 2.9799,21.24217 6.6247,44.45599 28.1232,57.73783 z"
   id="path14"
   style="stroke-width:2.48842" />


















<path
   fill="#ccaf06"
   opacity="1"
   stroke="none"
   d="m 1159.3137,984.31467 c -0.1127,-0.98996 -0.2251,-1.98 1.4495,-5.24795 14.882,-20.90514 27.962,-39.5427 41.0766,-58.15611 8.714,-12.36783 14.7522,-25.79708 11.5888,-41.11369 -0.918,-4.44494 -6.4261,-7.94216 -9.83,-11.87383 0,0 0.3116,-0.006 1.2211,-1.42069 17.0381,-13.52525 34.3373,-9.75571 48.2861,-0.0546 14.1498,9.84106 18.7409,26.46627 13.6796,43.94369 -2.9496,10.18347 -7.0051,20.04679 -11.7911,30.87454 -4.8444,5.71817 -8.4605,10.61572 -13.3015,16.24307 -3.6937,3.59966 -6.1628,6.46953 -9.7489,10.11445 -2.6419,2.961 -4.1671,5.14687 -7.164,7.91521 -5.3921,5.30581 -9.3127,10.02916 -14.6303,15.5546 -5.2719,7.07705 -9.1467,13.35204 -13.9804,20.66024 -2.1252,3.572 -3.2907,6.1109 -5.5364,9.9898 -10.847,17.5638 -2.4675,30.2112 11.9734,43.8761 -37.589,-9.5053 -48.8404,-24.7213 -45.8982,-56.8159 0.7494,-8.1739 1.7309,-16.32646 2.6057,-24.48885 z"
   id="path52"
   style="stroke-width:2.48842" />
<path
   fill="#d6c762"
   opacity="1"
   stroke="none"
   d="m 1711.2599,1247.0009 c -84.742,-41.1117 -173.4326,-69.9149 -266.0835,-87.1161 -88.0856,-16.3537 -175.9837,-15.9496 -264.4101,-2.7015 -75.6601,11.3355 -149.3185,30.1258 -223.8226,52.7002 -2.0161,-2.1087 -2.0756,-3.0391 -2.1352,-3.9696 41.1962,-19.9885 85.6716,-30.1166 129.828,-39.7284 43.5145,-9.4721 88.5163,-11.9806 132.2149,-20.7767 50.8568,-10.2368 101.8488,-2.2803 152.7174,-4.7029 25.5315,-1.216 51.6505,5.8684 77.2358,10.6378 56.0031,10.4399 111.4792,23.226 164.7211,44.0094 30.368,11.8543 60.4469,24.4572 90.5367,37.0079 2.681,1.1182 4.4832,4.342 8.0631,9.0869 1.2912,3.5171 1.2129,4.535 1.1344,5.553 z"
   id="path54"
   style="stroke-width:2.48842" />

<path
   fill="#c2b65c"
   opacity="1"
   stroke="none"
   d="m 953.5959,497.86641 c 22.5817,-25.39688 53.1183,-38.49829 82.8815,-52.2466 50.3851,-23.27361 103.4432,-39.006 157.5479,-50.8466 43.2736,-9.47036 78.7415,-31.19313 111.9345,-64.5027 7.5558,0.0641 11.1168,0.67571 14.6781,1.28725 -24.6224,40.53792 -61.3032,67.85139 -100.6741,92.3934 -39.8011,24.81031 -83.8247,39.81335 -127.661,54.98991 -36.4547,12.62102 -71.3224,28.19111 -105.9021,47.58626 -1.6148,-1.44736 -1.6112,-2.33985 -0.6865,-4.53901 23.2393,-13.36956 44.8541,-27.04121 68.02,-37.16534 50.4646,-22.0547 102.2184,-41.19669 152.3953,-63.85363 19.0505,-8.60208 35.2158,-23.59404 53.1979,-35.9681 0.5019,-0.29454 0.2724,-1.98923 0.2724,-1.98923 0,0 -1.2332,1.8119 -3.132,1.67267 -39.7865,10.89675 -78.0219,20.87883 -115.4639,33.262 -38.2507,12.65063 -76.4236,26.05612 -113.2894,42.19458 -24.7029,10.81394 -47.0674,26.96987 -71.4294,40.03293 -0.9514,-0.70256 -2.6892,-2.30779 -2.6892,-2.30779 z"
   id="path58"
   style="stroke-width:2.48842" />
<path
   fill="#ccaf06"
   opacity="1"
   stroke="none"
   d="m 1684.1492,688.81958 c 0,0 -0.1066,-0.0203 1.8611,0.37955 4.7077,0.2801 7.448,0.16039 11.926,-0.29876 10.2706,-3.95801 18.8029,-7.57658 27.335,-11.19515 0,-3e-5 1.4748,1.58947 0.8536,3.47462 -40.086,20.42152 -79.5508,38.95785 -121.0098,57.60703 -11.6426,2.3212 -21.1977,5.76055 -30.9567,6.49602 -24.5838,1.85265 -49.3033,3.84442 -73.8804,3.0535 -12.9136,-0.41562 -27.9087,-1.99746 -36.8476,-17.68899 14.607,-13.03147 27.9364,-26.56362 43.0926,-37.58358 5.5483,-4.03411 15.4991,-3.17917 23.3171,-2.66392 13.0189,0.85805 25.9373,3.2403 40.2154,6.11868 34.3221,8.0702 67.2615,11.93353 100.1081,-0.92503 0.265,0.0381 0.8296,-0.13898 2.685,-0.44562 5.0039,-2.31395 8.1521,-4.32117 11.3006,-6.32835 z"
   id="path60"
   style="stroke-width:2.48842" />

<path
   fill="#c6bd71"
   opacity="1"
   stroke="none"
   d="m 1158.0719,985.31298 c 0.367,7.16408 -0.6145,15.31672 -1.3639,23.49052 -2.9422,32.0946 8.3092,47.3105 45.8982,56.8159 -14.4409,-13.6648 -22.8204,-26.3122 -11.0378,-43.1094 2.0158,-0.5734 3.8872,0.9602 3.8383,2.9092 1.0957,28.0929 3.9119,32.0909 29.4188,31.6979 17.2971,-0.2666 34.5362,-4.2779 52.5678,-5.0088 4.4629,3.3755 9.0555,7.5223 11.7074,6.5224 15.0228,-5.6642 24.259,-18.0961 26.5721,-33.0298 5.2406,-33.83077 -6.8164,-63.35805 -27.8653,-96.78936 -8.008,20.16101 -13.843,34.8517 -21.5488,48.65527 -7.7457,-6.09386 -10.834,-11.60319 -5.0006,-19.05675 0.6689,-0.85418 -1.6209,-4.02364 -2.5953,-6.041 -0.056,0.0786 -0.1926,0.21575 0.5656,2.41407 6.3502,-3.84183 11.9424,-9.88199 18.2257,-17.84443 0.1246,-5.82639 -0.4419,-9.73065 -1.0085,-13.63483 -4.7086,6.16631 -13.2154,12.843 0.3256,12.70197 -5.7769,0.77862 -11.1869,4.33029 -17.5604,6.99337 -1.6385,-1.44356 -2.3135,-1.99861 -2.9884,-2.55372 3.5579,-10.0073 7.6134,-19.87062 10.563,-30.05409 5.0613,-17.47742 0.4702,-34.10262 -13.6796,-43.94368 -13.9488,-9.70103 -31.248,-13.47057 -48.3687,0.18628 -6.1895,-2.2423 -11.3866,-6.03127 -16.5839,-9.82018 0.6236,-2.1037 1.2469,-4.20741 1.8703,-6.31111 9.3266,-0.68886 18.7047,-2.31854 27.9671,-1.81711 10.4621,0.56652 20.8156,3.08562 31.2267,4.68735 11.4755,1.76555 24.8116,19.72435 25.5631,35.19458 0.4375,9.00799 0.08,18.05464 0.08,27.47422 7.1691,1.72416 15.069,1.315 18.8701,5.06274 6.1745,6.08838 10.8875,14.43113 14.0344,22.65724 6.5789,17.19522 11.0651,35.19017 17.6258,52.39344 10.6711,27.98113 -8.4808,59.10133 -29.5373,68.43803 -40.7488,18.0681 -82.7785,18.3495 -123.2287,-1.3245 -26.6269,-12.9507 -32.4075,-45.5234 -14.5527,-77.95572 z"
   id="path64"
   style="stroke-width:2.48842" />







<path
   fill="#c6bd71"
   opacity="1"
   stroke="none"
   d="m 984.7935,523.29495 c 0,0.89253 -0.01,1.78502 0.066,4.01187 -48.8104,41.81503 -65.09929,95.39933 -59.43626,156.27389 4.40186,47.31669 26.04576,88.29801 57.40986,123.00869 20.9259,23.15853 45.7599,42.81224 69.1743,63.66492 3.3252,2.96145 8.5172,3.82702 14.0811,6.18672 4.8581,-46.38852 27.273,-83.08299 56.8984,-117.21614 2.4231,0.27893 3.992,1.77868 3.1227,3.19512 -12.3479,20.51549 -26.076,38.66209 -34.6788,58.97885 -8.7793,20.73367 -12.5238,43.59929 -19.1625,68.07637 -7.2751,-3.87691 -14.5013,-6.1495 -19.6644,-10.74156 -28.3142,-25.18272 -58.9398,-48.51241 -83.4614,-77.0429 -39.3797,-45.81782 -61.95835,-99.59528 -54.38648,-161.98135 5.94493,-48.98261 25.97468,-90.07731 70.03698,-116.41448 z"
   id="path80"
   style="stroke-width:2.48842" />




<path
   fill="#c6bd71"
   opacity="1"
   stroke="none"
   d="m 1391.4269,599.61137 c -2.3223,7.07713 -4.9331,15.84165 -10.1945,22.51729 -17.3807,22.05272 -36.3944,42.83271 -53.4695,65.10703 -13.0165,16.98015 -25.9337,34.52325 -35.5997,53.49495 -30.6186,60.09556 -21.7469,112.82397 23.1108,161.91892 33.461,36.62173 76.1387,60.36591 120.8804,80.49228 14.3062,6.43559 28.899,12.23425 44.8161,20.55866 1.4202,3.1623 1.3849,4.0905 1.35,5.0186 -40.0897,-10.73126 -76.3796,-29.81565 -111.3927,-51.43289 -25.249,-15.58923 -48.868,-33.1741 -68.1585,-56.31281 -40.2412,-48.26766 -47.0588,-100.79589 -22.1275,-157.97791 14.7088,-33.73644 40.3068,-59.83941 62.49,-88.25628 14.7011,-18.83213 31.1343,-36.31198 48.2951,-55.12784 z"
   id="path90"
   style="stroke-width:2.48842" />





<path
   fill="#c6bd71"
   opacity="1"
   stroke="none"
   d="m 1124.6271,758.753 c 19.6704,-22.99943 38.9466,-46.48928 60.8186,-67.24368 48.5674,-46.08551 87.5437,-97.98485 105.0741,-163.58644 4.39,-16.42666 6.4848,-33.64272 7.8444,-50.63913 0.8648,-10.81325 3.9413,-17.95041 13.375,-24.26673 17.7506,-11.88541 34.282,-25.59188 53.4755,-37.53354 2.5032,3.6112 2.8513,6.21471 1.4422,9.06218 -16.4876,10.77437 -31.098,21.4783 -45.9957,31.76646 -8.2246,5.67986 -11.4989,13.16095 -11.97,22.9943 -2.4887,51.94745 -23.4431,97.3378 -51.0323,140.14138 -35.2982,54.76351 -86.4271,95.00559 -130.6795,141.55578 0,0 -1.5689,-1.49975 -2.3523,-2.25058 z"
   id="path102"
   style="stroke-width:2.48842" />
<path
   fill="#c6bd71"
   opacity="1"
   stroke="none"
   d="m 1813.5282,620.19171 c 0.3849,-5.40575 1.7241,-11.17184 4.7672,-15.82331 45.2731,-69.19957 38.1489,-137.79504 -4.0048,-204.69988 -22.9956,-36.49785 -57.0841,-61.4262 -95.6917,-80.15784 -8.1664,-3.96206 -16.2388,-8.11829 -25.5923,-14.51117 -1.1989,-3.16074 -1.16,-3.99537 -1.1209,-4.82999 59.7621,21.25924 108.4951,55.82295 140.4384,112.35456 28.3313,50.13925 31.9618,101.88613 15.3795,156.14505 -6.1931,20.2658 -19.5866,35.73406 -34.1754,51.52258 z"
   id="path104"
   style="stroke-width:2.48842" />
<path
   fill="#d6c762"
   opacity="1"
   stroke="none"
   d="m 1223.762,1307.1269 c 2.2178,-0.1361 4.4353,-0.2721 8.2153,1.108 1.6713,2.962 1.8228,4.4034 -0.08,6.4011 -27.4316,4.2018 -53.0757,6.4146 -78.0259,11.8263 -35.4475,7.6884 -70.6466,16.8432 -105.4356,27.1197 -18.9395,5.5946 -19.537,8.6189 -15.2105,26.9201 4.5576,19.28 10.3683,38.2707 14.675,57.6011 2.8663,12.8629 10.1055,17.5377 22.7609,17.3308 11.5096,-0.1883 23.0441,1.1279 34.3097,3.1077 -0.5259,3.0936 -0.7941,4.8608 -1.0623,6.6278 -10.7183,0.4107 -21.4343,1.09 -32.155,1.1772 -24.2311,0.1974 -26.8116,-0.5822 -33.7809,-22.7548 -7.2037,-22.9178 -12.6768,-46.4476 -17.6446,-69.9759 -3.1749,-15.0388 0.3503,-17.9024 16.3376,-24.5428 56.2479,-23.3635 115.1699,-34.4481 178.9575,-39.4003 5.0124,-0.8511 6.5756,-1.6987 8.1391,-2.546 z"
   id="path106"
   style="stroke-width:2.48842" />







<path
   fill="#c6bd71"
   opacity="1"
   stroke="none"
   d="m 905.07718,868.21569 c -33.54021,-37.21474 -56.3242,-78.46193 -60.02068,-130.3859 -2.11236,-29.66982 -0.15249,-58.04293 5.65878,-86.65956 9.03997,-44.51158 30.61194,-82.43705 63.50423,-115.50529 2.32833,0.0748 4.03426,1.75029 3.06162,3.07264 -5.84712,8.01176 -11.04662,14.49014 -15.54655,21.42275 -56.89375,87.65382 -67.69281,177.98659 -15.05051,271.65174 6.46285,11.49907 14.49493,22.11601 20.94683,33.95621 -0.85235,0.81446 -2.55372,2.44741 -2.55372,2.44741 z"
   id="path122"
   style="stroke-width:2.48842" />



<path
   fill="#c2b65c"
   opacity="1"
   stroke="none"
   d="m 1483.3399,1010.1404 c -0.9845,-2.3494 -0.9492,-3.2776 -0.7861,-5.589 12.8254,2.3307 25.7474,5.4251 38.1577,9.9306 12.6693,4.5996 22.4452,2.0266 30.9418,-8.1949 8.2729,-9.95219 16.9955,-19.53034 28.5063,-32.68408 -13.2495,-4.13587 -22.1656,-7.6463 -31.4066,-9.67558 -36.676,-8.05365 -71.8975,-20.19958 -104.6428,-38.52616 -26.8405,-15.02165 -51.9275,-32.52086 -65.8605,-63.38447 7.0491,5.05863 14.001,11.93201 20.7707,18.98036 40.466,42.13364 93.0213,59.39478 147.8902,71.77711 10.2712,2.31778 20.9979,2.82749 31.077,5.70465 6.2645,1.7884 11.7061,6.46064 18.6461,10.49506 -15.7287,17.94066 -29.2388,33.00111 -42.3322,48.41571 -7.8681,9.2634 -17.6562,12.1701 -28.7265,8.7935 -13.9293,-4.2487 -27.4938,-9.6932 -42.2351,-16.0428 z"
   id="path130"
   style="stroke-width:2.48842" />





<path
   fill="#c2b65c"
   opacity="1"
   stroke="none"
   d="m 1334.2759,1306.033 c 76.0466,1.3237 150.4741,11.715 223.9326,40.4493 -5.7195,36.7572 -11.5254,74.0695 -19.1012,110.7276 -2.8001,-6.1298 -3.8304,-11.6058 -4.8016,-19.024 4.1834,-29.4116 8.3076,-56.8811 12.5755,-85.3085 -10.9828,-3.9292 -19.2394,-7.9583 -27.9592,-9.8164 -37.1677,-7.9197 -74.3525,-15.8753 -111.7693,-22.4669 -24.2764,-4.2769 -48.9641,-6.2216 -73.2523,-10.5413 0.2686,-2.2266 0.322,-3.1232 0.3755,-4.0198 z"
   id="path142"
   style="stroke-width:2.48842" />




<path
   fill="#efeab6"
   opacity="1"
   stroke="none"
   d="m 1106.2665,1465.5208 c -2.0899,-2.1183 -1.8217,-3.8855 0.98,-7.0891 123.214,-1.3635 243.8948,-1.2904 364.8496,0.1095 0.6604,3.0846 1.0465,4.8423 1.4328,6.6 -67.8425,0.274 -135.6844,0.6423 -203.5273,0.7917 -53.792,0.1187 -107.5843,-0.03 -163.7351,-0.4121 z"
   id="path152"
   style="stroke-width:2.48842" />









<path
   fill="#c9bc5e"
   opacity="1"
   stroke="none"
   d="m 1568.7384,695.38069 c -12.961,-1.74049 -25.8794,-4.12274 -38.8983,-4.98079 -7.818,-0.51525 -17.7688,-1.37019 -23.3171,2.66392 -15.1562,11.01996 -28.4856,24.55211 -43.0926,37.58358 8.9389,15.69153 23.934,17.27337 36.8476,17.68899 24.5771,0.79092 49.2966,-1.20085 73.8804,-3.0535 9.759,-0.73547 19.3141,-4.17482 30.9391,-5.1098 1.9608,3.12191 1.9447,4.97053 1.9283,6.81915 -10.2772,2.08647 -20.5541,4.17301 -34.1554,6.58344 -5.7027,1.43839 -8.0813,2.55289 -10.46,3.66732 -3.8608,0.13358 -7.7213,0.26708 -14.357,-0.59082 -5.3523,-0.46544 -7.93,0.0605 -10.5077,0.58642 -20.3403,-1.3487 -40.7421,-2.14023 -60.9831,-4.38504 -6.0855,-0.67489 -12.3528,-4.56706 -17.4307,-8.43654 -10.0209,-7.63552 -10.078,-13.01773 -0.7008,-21.65316 13.9728,-12.86751 28.6563,-24.97533 42.3909,-38.08369 7.6038,-7.25707 14.4719,-7.88096 24.4662,-4.65234 16.062,5.18848 32.9485,7.82544 49.5603,12.75804 -1.9875,1.67662 -4.0488,2.13576 -6.1101,2.59482 z"
   id="path172"
   style="stroke-width:2.48842" />
<path
   fill="#c6bd71"
   opacity="1"
   stroke="none"
   d="m 1422.1208,156.84438 c 4.6066,42.81733 21.8749,80.47425 46.9149,114.94458 6.2436,8.59518 12.6466,17.0749 18.676,27.36719 -26.4441,-14.88714 -42.2379,-41.09198 -53.2322,-67.72371 -14.1849,-34.35899 -21.3794,-71.63737 -31.0002,-107.814 -1.5999,-6.01726 -0.2251,-12.82564 -0.2251,-20.62696 6.8271,-0.40307 11.4236,-0.67443 17.3995,-1.02726 3.0127,30.36498 15.1286,56.52382 30.5378,82.6596 -2.4383,2.02244 -3.507,2.12557 -4.5755,2.22873 -6.6679,-9.83649 -13.3356,-19.67302 -21.4459,-31.67291 -2.6519,-3.7903 -3.8606,-5.41723 -5.0693,-7.0442 0.6735,2.90294 1.3469,5.80594 2.02,8.70894 z"
   id="path174"
   style="stroke-width:2.48842" />
<path
   fill="#d6c762"
   opacity="1"
   stroke="none"
   d="m 1001.8831,1306.5673 c 4.8119,-4.3074 11.1454,-9.9055 18.5077,-12.1937 92.5837,-28.7761 187.1618,-43.1763 286.7853,-36.3428 2.5695,3.201 2.1074,4.5463 1.0807,5.6977 -22.1859,-1.5285 -44.3702,-4.5718 -66.2357,3.1076 -4.4379,1.5587 -9.8485,0.6259 -14.7935,0.4205 -45.5211,-1.8913 -89.6381,7.7348 -133.6642,17.0529 -30.1316,6.3773 -59.8031,14.9268 -91.6803,22.2578 z"
   id="path176"
   style="stroke-width:2.48842" />


<path
   fill="#c6bd71"
   opacity="1"
   stroke="none"
   d="m 1376.5973,434.65824 c -2.9214,61.85039 -30.1415,114.13155 -63.9505,164.02123 -22.6685,33.45011 -48.2696,64.22824 -80.5803,91.2305 -2.8462,-0.66392 -3.4257,-1.28473 -3.1487,-3.31419 26.3656,-31.64683 53.744,-60.52581 76.9423,-92.44298 34.4057,-47.33708 56.7182,-100.42307 64.5379,-159.50716 2.8925,-0.14384 4.5459,-0.0657 6.1993,0.0126 z"
   id="path182"
   style="stroke-width:2.48842" />
<path
   fill="#d6c762"
   opacity="1"
   stroke="none"
   d="m 1378.8074,858.24713 c -21.7822,-11.14291 -25.427,-34.35673 -28.4069,-55.59889 -8.7557,-62.42123 8.1056,-119.09423 46.3817,-170.51137 -1.9091,8.40783 -4.9324,17.55358 -9.5256,25.82798 -24.3478,43.86045 -31.2593,91.63709 -27.6306,140.3708 1.4618,19.63185 12.6848,38.53687 19.1814,59.91148 z"
   id="path184"
   style="stroke-width:2.48842" />


<path
   fill="#c6bd71"
   opacity="1"
   stroke="none"
   d="m 1476.1194,500.12849 c -1.7217,6.38865 -4.515,13.76324 -8.2723,20.60902 -3.3356,6.07843 -7.7411,11.57003 -11.6745,17.32063 1.267,1.60678 2.5337,3.21354 3.8004,4.82033 5.6488,-3.29461 12.2623,-5.60852 16.7798,-10.05301 19.8305,-19.51058 39.0304,-39.66121 58.5171,-59.52289 4.5054,-4.59232 9.2389,-8.96137 15.5923,-13.44695 -14.9681,20.05742 -30.7467,40.99035 -48.6179,59.95123 -17.0038,18.04094 -36.3294,33.87894 -54.3456,50.98922 -5.9777,5.6772 -11.0609,12.29663 -18.2427,17.40979 -1.8408,-2.41476 -1.9921,-3.7539 -1.4611,-6.39773 2.0206,-5.18962 3.3596,-9.07451 5.9926,-16.71352 -7.6463,4.90739 -11.5302,7.4001 -16.0459,9.23186 -0.6319,-0.66095 -1.8885,-1.98968 -1.8885,-1.9896 19.4587,-23.81747 38.9171,-47.63497 59.8663,-72.20838 z"
   id="path190"
   style="stroke-width:2.48842" />


<path
   fill="#c9bc5e"
   opacity="1"
   stroke="none"
   d="m 1447.273,188.40388 c 0.4115,-1.65449 1.4802,-1.75762 4.1561,-1.98448 38.5598,43.67219 87.2532,67.33222 141.9529,79.00491 33.399,7.12723 64.9894,18.30811 97.0678,33.79863 1.3968,1.7812 1.3579,2.61583 1.2297,4.69848 -46.6953,-12.90329 -93.5233,-26.37067 -139.8409,-41.40875 -41.7488,-13.55474 -77.6273,-36.41099 -104.5656,-74.10879 z"
   id="path196"
   style="stroke-width:2.48842" />






<path
   fill="#c2b65c"
   opacity="1"
   stroke="none"
   d="m 1150.0884,834.41037 c -0.1551,25.97843 -5.1405,52.13859 4.6689,77.6843 3.0434,7.92599 1.2527,15.53364 -6.5837,21.81233 -13.3866,10.72561 -25.2937,23.3183 -38.8391,33.81443 -4.561,3.5345 -12.59,5.16069 -18.3901,4.10876 -35.1832,-6.38128 -70.1204,-13.95628 -100.7251,-37.33252 -0.7652,-1.78248 -0.1701,-2.34338 1.7087,-2.24025 26.6964,8.93296 51.748,17.16499 76.2683,26.75507 26.3103,10.29032 43.0619,-4.5493 61.8402,-19.20574 16.8627,-13.16088 13.7649,-27.8654 9.8552,-44.1864 -0.5673,-2.36926 -0.3292,-4.93157 0.6367,-8.95369 5.0877,-12.81337 6.0145,-23.85649 -1.2506,-35.97486 1.1714,-6.9674 2.3284,-12.26698 5.3153,-17.23638 3.0516,0.5385 4.2733,0.74673 5.4953,0.95495 z"
   id="path210"
   style="stroke-width:2.48842" />














<path
   fill="#c2b65c"
   opacity="1"
   stroke="none"
   d="m 952.9219,1206.1751 c 1.9462,0.6693 2.0057,1.5997 2.1196,3.9283 -18.1616,9.2703 -36.47455,16.9284 -54.54931,25.1126 -8.10225,3.6686 -15.72729,8.391 -26.15181,14.0334 15.16291,23.9524 29.11531,46.2094 43.29705,68.3194 9.91784,15.4624 22.11147,3.95 35.46727,3.6082 2.0234,2.0202 2.0149,2.9066 2.0067,3.7927 -9.992,5.065 -19.9839,10.13 -33.02901,16.7427 -20.26307,-31.9248 -41.39276,-62.9259 -60.0392,-96.6104 28.64203,-20.1176 59.7968,-27.1697 90.87871,-38.9269 z"
   id="path240"
   style="stroke-width:2.48842" />








<path
   fill="#c6bd71"
   opacity="1"
   stroke="none"
   d="m 1608.8462,746.8683 c -1.804,-1.72468 -1.7879,-3.5733 -1.7542,-6.80806 39.4821,-19.92255 78.9469,-38.45888 119.72,-58.04205 24.8104,-17.98212 48.3125,-34.91739 73.4791,-52.24581 -4.457,7.8985 -9.2835,17.70858 -16.921,24.22306 -36.0785,30.77426 -77.8822,52.13881 -121.131,70.84464 -17.1422,7.41431 -34.3789,14.60945 -53.3929,22.02822 z"
   id="path258"
   style="stroke-width:2.48842" />







<path
   fill="#c2b65c"
   opacity="1"
   stroke="none"
   d="m 1622.1565,350.79637 c 56.285,14.9941 105.9799,41.03041 141.1455,88.90414 9.9717,13.57524 15.3236,30.5437 21.7816,48.67883 -2.2767,4.13182 -3.5406,5.54078 -4.8046,6.9497 -21.6124,-73.7186 -77.5028,-109.39376 -145.7013,-131.57632 -3.5419,-1.15211 -6.407,-4.38623 -11.0959,-8.63203 -1.5091,-1.98104 -1.3253,-4.32432 -1.3253,-4.32432 z"
   id="path274"
   style="stroke-width:2.48842" />










<path
   fill="#d6c762"
   opacity="1"
   stroke="none"
   d="m 1336.7998,1259.1927 c 20.4129,0.7069 41.1176,-0.5163 61.179,2.5163 43.859,6.6298 87.3912,15.4208 132.7231,25.3035 1.6662,1.9745 1.5355,4.4233 1.5355,4.4233 -22.1734,-3.3455 -44.5965,-5.5393 -66.4659,-10.2851 -40.8353,-8.8614 -81.9666,-13.9174 -126.003,-15.8772 -2.7539,-3.1076 -2.9817,-4.5755 -2.9687,-6.0808 z"
   id="path296"
   style="stroke-width:2.48842" />



<path
   fill="#c6bd71"
   opacity="1"
   stroke="none"
   d="m 1780.228,497.61433 c 1.315,-3.69421 2.5789,-5.10317 4.9589,-7.39813 13.6945,60.24812 5.5622,116.66956 -37.0605,165.03856 -3.0972,3.51514 -7.8107,5.60605 -13.4227,8.59773 4.3338,-7.45311 10.2659,-15.18572 16.3105,-22.82933 21.8557,-27.63773 26.2934,-61.05499 30.0458,-94.27556 1.7378,-15.38647 -0.466,-31.21822 -0.832,-49.13327 z"
   id="path304"
   style="stroke-width:2.48842" />











<path
   fill="#c6bd71"
   opacity="1"
   stroke="none"
   d="m 1151.7518,833.55764 c -2.8854,0.64451 -4.1071,0.43628 -6.943,-2.09847 11.7349,-58.35318 41.2345,-104.6678 83.2521,-143.4547 0.5799,0.62077 1.1594,1.24158 2.592,2.80938 -21.2163,29.22435 -46.8077,55.2122 -60.5788,89.05055 -6.9385,17.04965 -11.1911,35.19215 -18.3223,53.69324 z"
   id="path328"
   style="stroke-width:2.48842" />






















































<path
   fill="#c6bd71"
   opacity="1"
   stroke="none"
   d="m 1620.6532,350.14662 c 1.5033,0.64975 1.3195,2.99303 1.2296,4.16507 -9.1359,1.52144 -11.8814,8.53844 -15.1398,15.18384 -8.2606,16.8449 -15.9305,34.03829 -25.226,50.29815 -7.7106,13.4881 -17.401,25.84465 -27.6818,39.51229 1.246,-6.6349 3.2621,-14.42977 6.7967,-21.46149 12.8436,-25.55278 26.5968,-50.65417 39.1361,-76.35071 4.3122,-8.83775 7.314,-16.95469 20.8852,-11.34715 z"
   id="path438"
   style="stroke-width:2.48842" />


















<path
   fill="#c6bd71"
   opacity="1"
   stroke="none"
   d="m 1203.8382,870.11831 c 3.1643,1.73645 8.6724,5.23367 9.5904,9.67861 3.1634,15.31661 -2.8748,28.74586 -11.5888,41.11369 -13.1146,18.61341 -26.1946,37.25097 -40.8171,56.68423 -0.9147,-17.37771 10.3003,-30.46378 20.2387,-44.1024 5.3372,-7.32401 11.6724,-13.96448 16.5858,-21.54342 7.8538,-12.11343 12.4472,-25.12812 5.991,-41.83071 z"
   id="path476"
   style="stroke-width:2.48842" />


























<path
   fill="#d6c762"
   opacity="1"
   stroke="none"
   d="m 1538.2613,339.68695 c 11.231,30.89693 10.2733,60.70961 -9.6195,89.59386 3.8514,-22.45656 10.549,-45.38898 7.6129,-69.54204 -0.5829,-4.79774 -2.2154,-9.46787 -2.2324,-16.82751 2.1673,-2.82856 3.2032,-3.02642 4.239,-3.22431 z"
   id="path530"
   style="stroke-width:2.48842" />


<path
   fill="#a5b595"
   opacity="1"
   stroke="none"
   d="m 1321.959,330.54413 c -4.8824,0.40209 -8.4434,-0.20948 -14.7016,-1.12765 5.445,-14.90041 13.0649,-29.83003 22.0945,-43.85204 2.2558,-3.5033 9.0515,-4.08315 13.7604,-6.00661 1.421,4.03693 5.2347,9.38493 3.8617,11.89104 -7.1727,13.09114 -15.6622,25.46093 -25.015,39.09526 z"
   id="path536"
   style="stroke-width:2.48842" />
<path
   fill="#c6bd71"
   opacity="1"
   stroke="none"
   d="m 989.2785,933.08433 c -34.596,-11.23289 -58.7333,-36.45244 -83.43949,-63.39828 -0.76183,-1.47036 0.93954,-3.10331 3.02092,-2.88133 21.62147,16.28681 41.16557,32.3471 60.70017,48.41893 6.8417,5.62887 13.6602,11.28629 20.4891,16.93064 0,0 -0.5951,0.5609 -0.7707,0.93004 z"
   id="path538"
   style="stroke-width:2.48842" />









<path
   fill="#d6c762"
   opacity="1"
   stroke="none"
   d="m 1475.3464,1465.6555 c -2.2038,-2.272 -2.5899,-4.0297 -0.9541,-7.6215 15.1431,-2.1015 28.283,-2.923 41.3791,-2.4683 11.385,0.3955 16.4153,-5.3926 18.475,-15.4375 1.0305,5.4759 2.0608,10.9519 3.1422,18.1237 -5.6323,3.7988 -11.2288,7.3705 -17.017,7.7146 -14.3558,0.8533 -28.7994,0.2322 -45.0252,-0.311 z"
   id="path558"
   style="stroke-width:2.48842" />















<path
   fill="#d6c762"
   opacity="1"
   stroke="none"
   d="m 1570.0555,696.51858 c 0.7442,-1.59695 2.8055,-2.05609 6.3987,-2.8797 27.7013,-0.47851 53.8711,-0.59249 84.524,0.0688 5.9623,1.13281 7.4413,1.49034 8.9206,1.84787 -32.5818,12.89653 -65.5212,9.0332 -99.8433,0.963 z"
   id="path590"
   style="stroke-width:2.48842" />







<path
   fill="#c2b65c"
   opacity="1"
   stroke="none"
   d="m 1585.2551,1307.7108 c 16.8525,3.857 34.6955,9.1255 52.3853,14.8654 6.9097,2.242 13.4756,5.5435 21.5507,9.498 0.078,3.509 -1.1964,5.8826 -2.471,8.256 -23.5122,-10.3398 -47.0239,-20.6797 -71.465,-32.6194 z"
   id="path606"
   style="stroke-width:2.48842" />


































<path
   fill="#c6bd71"
   opacity="1"
   stroke="none"
   d="m 1520.4742,439.82596 c -4.5424,24.89418 -19.6182,44.09097 -41.3423,59.87604 12.0648,-19.87375 25.8778,-39.68675 41.3423,-59.87604 z"
   id="path676"
   style="stroke-width:2.48842" />














































<path
   fill="#c6bd71"
   opacity="1"
   stroke="none"
   d="m 1487.7742,302.39688 c 17.5371,-0.90533 31.2851,8.89142 43.4635,21.54374 -2.28,2.21838 -3.4112,2.4784 -4.5427,2.7384 -12.8109,-7.56298 -25.6218,-15.12593 -38.9208,-24.28214 z"
   id="path770"
   style="stroke-width:2.48842" />





























































<path
   fill="#c6bd71"
   opacity="1"
   stroke="none"
   d="m 1711.1394,1248.7079 c 0.199,-2.725 0.2773,-3.7429 0.4176,-6.2909 10.5093,-3.8569 12.0102,4.0307 9.1824,9.6043 -5.3407,10.5259 -13.2214,19.7631 -21.7991,29.627 2.8578,-10.3504 7.468,-20.7918 12.1991,-32.9404 z"
   id="path894"
   style="stroke-width:2.48842" />





<path
   fill="#c6bd71"
   opacity="1"
   stroke="none"
   d="m 915.69518,534.90174 c 9.22587,-10.93016 19.30412,-21.02228 31.68242,-30.90135 2.3004,0.21302 3.7053,1.66113 2.7478,2.98523 -11.2623,11.02592 -21.5668,20.72778 -31.87163,30.42961 0,0 -1.70593,-1.67552 -2.55859,-2.51349 z"
   id="path906"
   style="stroke-width:2.48842" />























<path
   fill="#efeab6"
   opacity="1"
   stroke="none"
   d="m 1331.8962,1305.6377 c 2.3262,1.2919 2.2728,2.1885 -0.3463,4.3972 -24.0893,0.9228 -45.6129,0.5335 -67.0461,-0.7027 0.09,-0.8469 -0.3836,-2.483 -0.3836,-2.483 21.7985,-0.5356 43.5974,-1.0713 67.776,-1.2115 z"
   id="path954"
   style="stroke-width:2.48842" />
<path
   fill="#efeab6"
   opacity="1"
   stroke="none"
   d="m 1377.5401,433.3488 c -2.5962,1.23123 -4.2496,1.153 -7.3722,-0.45944 -1.5638,-3.88542 -1.6587,-6.23654 -1.7537,-8.58766 -0.3482,-2.60351 -0.6963,-5.20702 -1.7306,-9.66055 4.7069,-6.85796 9.5658,-6.80047 11.3422,0.91584 1.209,5.25087 0.3767,10.97167 -0.4857,17.79181 z"
   id="path956"
   style="stroke-width:2.48842" />












<path
   fill="#c6bd71"
   opacity="1"
   stroke="none"
   d="m 1668.8332,1330.7449 c -2.5476,-13.4164 5.1949,-22.8567 16.49,-31.8176 -3.7174,10.1884 -9.2623,20.7826 -16.49,31.8176 z"
   id="path982"
   style="stroke-width:2.48842" />









<path
   fill="#c6bd71"
   opacity="1"
   stroke="none"
   d="m 1414.8747,584.28588 c -6.062,5.04911 -12.1238,10.09823 -20.161,14.98163 4.8115,-8.73817 11.5984,-17.31068 19.9626,-26.40696 1.5768,-0.52376 2.8334,0.80497 2.9696,3.04469 -0.7066,4.28577 -1.549,6.33185 -2.4951,8.38262 -0.1039,0.004 -0.2761,-0.002 -0.2761,-0.002 z"
   id="path1002"
   style="stroke-width:2.48842" />





<path
   fill="#efeab6"
   opacity="1"
   stroke="none"
   d="m 1334.8591,1258.8904 c 1.9277,1.8076 2.1555,3.2755 2.7302,5.8212 -8.4932,1.2537 -17.0924,1.3922 -27.5124,0.2738 -0.7934,-2.4083 -0.3313,-3.7536 -0.5698,-6.3753 7.7125,-0.729 15.5618,-0.3756 25.352,0.2803 z"
   id="path1014"
   style="stroke-width:2.48842" />









<path
   fill="#c9bc5e"
   opacity="1"
   stroke="none"
   d="m 1533.4673,1292.5711 c -1.2299,-1.1353 -1.0992,-3.5841 -1.0048,-4.8039 7.5965,0.8534 15.0982,2.9267 23.7633,7.2409 1.1634,2.241 0.989,4.6812 0.989,4.6812 -7.5056,-1.9944 -15.0116,-3.9887 -23.7475,-7.1182 z"
   id="path1034"
   style="stroke-width:2.48842" />

<path
   fill="#c2b65c"
   opacity="1"
   stroke="none"
   d="m 1261.9379,1306.6503 c 2.1823,0.1989 2.6562,1.835 0.9423,3.7722 -10.7711,2.5091 -19.8284,3.081 -28.8856,3.6528 -0.1945,-1.437 -0.346,-2.8784 -0.3971,-5.41 8.7578,-1.4618 17.4578,-1.8379 28.3404,-2.015 z"
   id="path1038"
   style="stroke-width:2.48842" />
















<path
   fill="#d6c762"
   opacity="1"
   stroke="none"
   d="m 1725.3314,676.59516 c -8.5922,4.72863 -17.1245,8.3472 -27.2796,10.91535 -1.5021,-2.89549 -1.3809,-4.74055 -1.2594,-6.58556 8.727,-3.04943 17.4542,-6.09883 27.9121,-9.45387 1.0285,1.04884 0.6807,2.48872 0.6269,5.12408 z"
   id="path1072"
   style="stroke-width:2.48842" />




<path
   fill="#d6c762"
   opacity="1"
   stroke="none"
   d="m 1414.8506,586.89163 c 0.024,-2.60571 0.1963,-2.5991 2.3627,-2.27814 4.8772,-0.28626 7.5885,-0.89344 10.2997,-1.50062 0.1509,1.33909 0.3022,2.67823 0.6977,6.02668 -3.6382,8.12689 -7.5212,14.24443 -12.998,20.48982 -1.1911,-6.62543 -0.7882,-13.37871 -0.3621,-22.73774 z"
   id="path1082"
   style="stroke-width:2.48842" />














































































<path
   fill="#c2b65c"
   opacity="1"
   stroke="none"
   d="m 1558.9163,1300.7735 c -1.7015,-1.0842 -1.5271,-3.5244 -1.3594,-4.7438 6.9926,1.3985 13.8178,4.0166 21.4335,8.3476 -5.5974,0.3022 -11.9852,-1.1087 -20.0741,-3.6038 z"
   id="path1240"
   style="stroke-width:2.48842" />


















<path
   fill="#d6c762"
   opacity="1"
   stroke="none"
   d="m 1405.3507,624.4917 c 0.4627,-4.87014 2.5915,-9.88985 6.531,-14.85675 -0.4144,4.93759 -2.6398,9.82238 -6.531,14.85675 z"
   id="path1278"
   style="stroke-width:2.48842" />




















<path
   fill="#c9bc5e"
   opacity="1"
   stroke="none"
   d="m 1695.3999,681.61585 c 1.271,1.15411 1.1498,2.99917 0.9134,6.23412 -2.855,1.50955 -5.5953,1.62926 -10.3634,1.33541 1.3341,-2.56857 4.6959,-4.72361 9.45,-7.56953 z"
   id="path1320"
   style="stroke-width:2.48842" />



<path
   fill="#d6c762"
   opacity="1"
   stroke="none"
   d="m 968.6406,1313.6711 c 2.8086,-1.1538 5.6175,-2.3075 9.981,-1.9282 1.6288,2.618 1.7029,3.7034 1.7768,4.7887 -2.421,1.2359 -4.842,2.4718 -9.0628,1.9748 -2.0984,-2.7672 -2.3967,-3.8013 -2.695,-4.8353 z"
   id="path1328"
   style="stroke-width:2.48842" />
<path
   fill="#d6c762"
   opacity="1"
   stroke="none"
   d="m 956.5901,1324.9993 c -1.4705,-0.9157 -1.462,-1.8021 -1.5617,-4.022 2.4247,-2.834 4.9568,-4.3346 8.9759,-4.3366 1.5188,2.6679 1.5504,3.8374 1.5823,5.0069 -2.506,1.1271 -5.0118,2.2542 -8.9965,3.3517 z"
   id="path1330"
   style="stroke-width:2.48842" />






































<path
   fill="#c6bd71"
   opacity="1"
   stroke="none"
   d="m 1658.3768,1340.7213 c -0.3821,-2.7645 0.8924,-5.1381 2.6537,-8.7601 1.4595,-1.4676 2.4322,-1.687 4.7857,-1.3322 -1.007,3.8771 -3.3948,7.1801 -7.4394,10.0923 z"
   id="path1408"
   style="stroke-width:2.48842" />
















<path
   fill="#d6c762"
   opacity="1"
   stroke="none"
   d="m 986.5881,1311.5464 c 0.6762,-2.277 3.0155,-4.3004 6.8624,-5.0129 1.4671,2.3081 1.4264,3.3053 1.3857,4.3026 -2.195,0.3213 -4.3903,0.6427 -8.2481,0.7103 z"
   id="path1442"
   style="stroke-width:2.48842" />





<path
   fill="#c6bd71"
   opacity="1"
   stroke="none"
   d="m 1694.3076,1291.4164 c -1.1767,-2.8158 -0.4884,-5.8286 1.7339,-9.5278 1.0668,2.6526 0.599,5.9917 -1.7339,9.5278 z"
   id="path1454"
   style="stroke-width:2.48842" />







<path
   fill="#c6bd71"
   opacity="1"
   stroke="none"
   d="m 1525.4738,429.96003 c 0.8691,2.55262 0.1158,5.55065 -2.1084,9.22389 -0.8184,-2.47604 -0.1658,-5.62731 2.1084,-9.22389 z"
   id="path1470"
   style="stroke-width:2.48842" />





<path
   fill="#d6c762"
   opacity="1"
   stroke="none"
   d="m 1682.0931,688.41417 c -1.0924,2.41259 -4.2406,4.41981 -9.0428,5.04309 -1.5291,-2.50022 -1.4052,-3.61655 -1.2809,-4.73291 2.7557,-0.23854 5.5117,-0.47702 10.3237,-0.31018 z"
   id="path1482"
   style="stroke-width:2.48842" />

<path
   fill="#c2b65c"
   opacity="1"
   stroke="none"
   d="m 1563.8229,757.59765 c 0.9662,-1.46908 3.3448,-2.58358 7.0449,-3.80706 -0.9964,1.31461 -3.3144,2.73811 -7.0449,3.80706 z"
   id="path1486"
   style="stroke-width:2.48842" />

<path
   fill="#c2b65c"
   opacity="1"
   stroke="none"
   d="m 1539.1228,757.59423 c 1.0006,-0.8816 3.5783,-1.40749 7.0284,-1.31719 -1.2357,0.96855 -3.3438,1.32068 -7.0284,1.31719 z"
   id="path1490"
   style="stroke-width:2.48842" />
<path
   fill="#c9bc5e"
   opacity="1"
   stroke="none"
   d="m 1670.246,688.57414 c 1.3991,1.26657 1.2752,2.3829 0.9489,5.18985 -0.2017,1.69058 -0.7663,1.8676 -1.0313,1.82956 -1.7441,-0.3955 -3.2231,-0.75303 -6.9175,-1.65687 0.3481,-2.20182 2.9125,-3.85729 6.9999,-5.36254 z"
   id="path1492"
   style="stroke-width:2.48842" />




































<path
   fill="#c6bd71"
   opacity="1"
   stroke="none"
   d="m 1803.1012,629.93762 c -0.7223,-1.65645 0.213,-3.19621 2.4784,-5.14223 0.6133,1.48209 -0.1033,3.37046 -2.4784,5.14223 z"
   id="path1566"
   style="stroke-width:2.48842" />

<path
   fill="#d6c762"
   opacity="1"
   stroke="none"
   d="m 1400.0939,631.44683 c -1.062,-1.65489 -0.4314,-3.84381 1.893,-6.52979 1.0626,1.66721 0.4311,3.83151 -1.893,6.52979 z"
   id="path1570"
   style="stroke-width:2.48842" />




<path
   fill="#c6bd71"
   opacity="1"
   stroke="none"
   d="m 1808.1762,625.02142 c -0.7764,-1.71313 0.1728,-3.27144 2.5112,-5.12245 0.6644,1.56395 -0.061,3.42063 -2.5112,5.12245 z"
   id="path1580"
   style="stroke-width:2.48842" />





<path
   fill="#c6bd71"
   opacity="1"
   stroke="none"
   d="m 1537.5281,338.27134 c -0.3026,1.6135 -1.3385,1.81136 -3.9216,2.34638 -1.8281,-1.00038 -2.1087,-2.33793 -2.0291,-5.69294 1.9795,-0.70132 3.5986,0.61484 5.9507,3.34656 z"
   id="path1592"
   style="stroke-width:2.48842" />
<path
   fill="#d6c762"
   opacity="1"
   stroke="none"
   d="m 1526.9295,328.21606 c 0.897,-1.79704 2.0282,-2.05706 4.8802,-2.61908 1.6695,1.05873 1.6185,2.41949 0.9231,5.71859 -2.2858,0.7714 -3.9273,-0.39554 -5.8033,-3.09951 z"
   id="path1594"
   style="stroke-width:2.48842" />


























<path
   fill="#c6bd71"
   opacity="1"
   stroke="none"
   d="m 948.9723,503.49243 c 0.2646,-2.06919 1.2345,-3.41736 3.4143,-5.19578 1.2093,-0.43024 2.9471,1.17499 2.9957,2.8412 -1.4006,2.6187 -2.8502,3.57118 -4.2994,4.52367 0,0 -1.4049,-1.44811 -2.1106,-2.16909 z"
   id="path1648"
   style="stroke-width:2.48842" />




<path
   fill="#c2b65c"
   opacity="1"
   stroke="none"
   d="m 996.2362,1310.9143 c -1.3593,-1.0755 -1.3186,-2.0727 -1.1655,-4.5716 0.9839,-1.3824 1.8557,-1.2633 3.9322,-0.6055 0.3475,2.1107 -0.5094,3.6831 -2.7667,5.1771 z"
   id="path1658"
   style="stroke-width:2.48842" />






<path
   fill="#c2b65c"
   opacity="1"
   stroke="none"
   d="m 1222.3304,1306.8351 c -0.1318,1.1391 -1.695,1.9867 -4.5953,3.006 0.1628,-0.9847 1.6631,-2.1411 4.5953,-3.006 z"
   id="path1672"
   style="stroke-width:2.48842" />
<path
   fill="#c2b65c"
   opacity="1"
   stroke="none"
   d="m 981.6359,1316.0855 c -1.3114,-0.6392 -1.3855,-1.7246 -1.4848,-4.449 0.8612,-1.5409 1.7475,-1.4426 3.8878,-0.8765 0.4472,1.9383 -0.3593,3.4089 -2.403,5.3255 z"
   id="path1674"
   style="stroke-width:2.48842" />





<path
   fill="#c6bd71"
   opacity="1"
   stroke="none"
   d="m 1688.5197,1298.2087 c -0.9091,-1.5013 -0.1738,-3.6555 2.2342,-6.3215 0.9182,1.5483 0.1643,3.6083 -2.2342,6.3215 z"
   id="path1686"
   style="stroke-width:2.48842" />




















<path
   fill="#c2b65c"
   opacity="1"
   stroke="none"
   d="m 966.8314,1321.4772 c -1.2767,-0.9991 -1.3083,-2.1686 -1.3551,-5.1016 -0.015,-1.7637 1.5644,-2.2948 2.3645,-2.4997 1.0981,0.8292 1.3964,1.8633 2.0182,4.4792 -0.3785,2.0384 -1.0805,2.4951 -3.0276,3.1221 z"
   id="path1728"
   style="stroke-width:2.48842" />













































































<path
   fill="#c6bd71"
   opacity="1"
   stroke="none"
   d="m 1197.1281,1010.7203 c 3.8748,-6.2751 7.7496,-12.54998 13.7912,-18.93247 2.1667,-0.10746 3.7362,1.24793 3.3447,2.79233 -4.9662,7.26374 -9.5406,12.98314 -14.8683,18.05984 -0.7536,-0.6426 -2.2676,-1.9197 -2.2676,-1.9197 z"
   id="path1884"
   style="stroke-width:2.48842" />
<path
   fill="#c6bd71"
   opacity="1"
   stroke="none"
   d="m 1242.9176,956.77923 c 3.6162,-4.89756 7.2323,-9.79511 12.0767,-15.51328 1.903,-0.26535 2.578,0.2897 3.8033,3.17871 0.2576,4.26945 -0.035,6.2048 -0.3274,8.14015 0,0 0.1364,-0.13715 -1.3093,-0.15728 -4.5524,2.51402 -7.6596,5.04808 -11.6355,6.7739 -0.8685,-0.80839 -2.6078,-2.4222 -2.6078,-2.4222 z"
   id="path1886"
   style="stroke-width:2.48842" />
<path
   fill="#c6bd71"
   opacity="1"
   stroke="none"
   d="m 1212.3162,990.98582 c 3.151,-5.41798 7.0716,-10.14134 13.1924,-14.69443 2.2002,0.17026 3.7576,1.5722 3.2609,3.02943 -5.0361,5.54305 -9.5752,9.62896 -14.114,13.71486 0,8e-5 -1.5695,-1.35531 -2.3393,-2.04986 z"
   id="path1888"
   style="stroke-width:2.48842" />
<path
   fill="#c6bd71"
   opacity="1"
   stroke="none"
   d="m 1233.0608,966.84842 c 2.4692,-2.86988 4.9383,-5.73974 8.632,-9.3394 1.2248,-0.72979 2.9641,0.88402 3.017,2.84754 -2.7135,4.50434 -5.4799,7.04516 -9.0965,8.81161 -0.8496,-0.77436 -2.5525,-2.31975 -2.5525,-2.31975 z"
   id="path1890"
   style="stroke-width:2.48842" />
<path
   fill="#c6bd71"
   opacity="1"
   stroke="none"
   d="m 1192.6486,1021.1699 c 0.2299,-3.3056 1.3954,-5.8444 3.5206,-9.4164 0.9589,-1.0332 2.4729,0.2439 3.2284,2.4305 -0.8102,4.5533 -2.3761,6.9198 -3.942,9.2862 0,0 -1.8714,-1.5336 -2.807,-2.3003 z"
   id="path1892"
   style="stroke-width:2.48842" />
<path
   fill="#c6bd71"
   opacity="1"
   stroke="none"
   d="m 1226.98,975.70894 c 0.7968,-2.9386 2.322,-5.12447 4.9639,-8.08547 1.1169,-0.77505 2.8198,0.77034 2.9562,2.7192 -1.7871,3.80629 -3.7104,5.66364 -5.6339,7.52092 0,0 -1.5574,-1.40194 -2.2862,-2.15465 z"
   id="path1894"
   style="stroke-width:2.48842" />
<path
   fill="#ccaf06"
   opacity="1"
   stroke="none"
   d="m 950.1254,506.98562 c 2.4067,-2.27659 3.8563,-3.22907 6.2083,-5.1452 24.3134,-14.72928 46.6779,-30.88521 71.3808,-41.69915 36.8658,-16.13846 75.0387,-29.54395 113.2894,-42.19458 37.442,-12.38317 75.6774,-22.36525 115.5744,-33.13996 2.0097,0.26127 2.2476,0.48917 2.2476,0.48909 -17.4806,12.07949 -33.6459,27.07145 -52.6964,35.67353 -50.1769,22.65694 -101.9307,41.79893 -152.3953,63.85363 -23.1659,10.12413 -44.7807,23.79578 -68.02,37.16534 -44.9829,27.6438 -65.01272,68.7385 -70.95765,117.72111 -7.57187,62.38607 15.00675,116.16353 54.38655,161.98135 24.5215,28.53049 55.1471,51.86018 83.4613,77.0429 5.1631,4.59206 12.3893,6.86465 19.6644,10.74156 6.6388,-24.47708 10.3832,-47.3427 19.1625,-68.07637 8.6029,-20.31676 22.3309,-38.46336 34.6788,-58.97885 45.1217,-47.96663 96.2506,-88.20871 131.5488,-142.97222 27.5892,-42.80358 48.5436,-88.19393 51.0323,-140.14138 0.4711,-9.83335 3.7454,-17.31444 11.97,-22.9943 14.8977,-10.28816 29.5081,-20.99209 45.9957,-31.76646 1.8523,2.10716 1.9472,4.45828 2.2718,8.56571 -6.3504,60.61836 -28.6629,113.70435 -63.0686,161.04143 -23.1983,31.91717 -50.5767,60.79615 -76.9423,92.44298 -42.8745,40.19559 -72.3741,86.51021 -85.9386,144.53312 -1.373,7.29592 -2.53,12.5955 -3.9993,21.81195 -0.058,14.36955 0.1946,24.82231 0.4477,35.275 0.1349,2.47293 -0.1032,5.03524 0.4641,7.4045 3.9097,16.321 7.0075,31.02552 -9.8552,44.1864 -18.7783,14.65644 -35.5299,29.49606 -61.8402,19.20574 -24.5203,-9.59008 -49.5719,-17.82211 -76.2683,-26.75507 -8.7077,-5.74748 -15.5262,-11.4049 -22.3679,-17.03377 -19.5346,-16.07183 -39.0787,-32.13212 -59.84782,-49.23347 -8.53328,-12.0621 -16.56536,-22.67904 -23.02821,-34.17811 -52.6423,-93.66515 -41.84324,-183.99792 15.05051,-271.65174 4.49993,-6.93261 9.69943,-13.41099 15.54655,-21.42275 11.27747,-11.02418 21.58197,-20.72604 32.84427,-31.75196 z"
   id="path1896"
   style="stroke-width:2.48842" />
<path
   fill="#ccaf06"
   opacity="1"
   stroke="none"
   d="m 1258.4775,384.94597 c -0.1109,-0.12205 1.1223,-1.93395 1.1223,-1.93395 0,0 0.2295,1.69469 -0.2724,1.9893 -0.5015,0.29458 -0.7394,0.0667 -0.8499,-0.0553 z"
   id="path1898"
   style="stroke-width:2.48842" />

<path
   fill="#ccaf06"
   opacity="1"
   stroke="none"
   d="m 1268.2902,978.18991 c 5.6743,-14.52667 11.5093,-29.21736 19.5173,-49.37837 21.0489,33.43131 33.1059,62.95859 27.8653,96.78936 -2.3131,14.9337 -11.5493,27.3656 -26.5721,33.0298 -2.6519,0.9999 -7.2445,-3.1469 -11.7074,-6.5224 -0.7663,-1.6056 -0.056,-1.6795 1.9125,-1.5129 20.6754,-20.9013 19.6271,-40.5678 -1.1388,-58.12495 0,0 0.326,-0.0568 0.6504,-1.66408 -3.3575,-5.42884 -7.0391,-9.25055 -10.721,-13.07233 0,0 0.3545,0.29183 0.1938,0.45587 z"
   id="path1902"
   style="stroke-width:2.48842" />
























<path
   fill="#cdaf03"
   opacity="1"
   stroke="none"
   d="m 1231.8971,1314.636 c 11.1547,-1.1325 20.212,-1.7044 30.8929,-3.3666 23.147,-0.701 44.6706,-0.3117 68.5449,0.096 26.8537,3.0075 51.5414,4.9522 75.8178,9.2291 37.4168,6.5916 74.6016,14.5472 111.7693,22.4669 8.7198,1.8581 16.9764,5.8872 27.9592,9.8164 -4.2679,28.4274 -8.3921,55.8969 -12.5755,85.3085 -2.119,11.9872 -7.1493,17.7753 -18.5343,17.3798 -13.0961,-0.4547 -26.236,0.3668 -41.6531,1.1414 -122.977,0.4342 -243.6578,0.3611 -366.6143,0.3979 -13.799,-0.5431 -25.3334,-1.8593 -36.843,-1.671 -12.6554,0.2069 -19.8946,-4.4679 -22.7609,-17.3308 -4.3067,-19.3304 -10.1174,-38.3211 -14.675,-57.6011 -4.3266,-18.3012 -3.7291,-21.3255 15.2105,-26.9201 34.789,-10.2765 69.9881,-19.4313 105.4356,-27.1197 24.9501,-5.4117 50.5943,-7.6245 78.0259,-11.8263 z"
   id="path1952"
   style="stroke-width:2.48842" />












<path
   fill="#ccaf06"
   opacity="1"
   stroke="none"
   d="m 1422.6352,156.42546 c -1.1875,-2.48408 -1.8609,-5.38708 -2.5344,-8.29002 1.2087,1.62697 2.4174,3.2539 3.8517,5.95709 0.2257,1.07628 -0.8031,1.91402 -1.3173,2.33293 z"
   id="path1978"
   style="stroke-width:2.48842" />

<path
   fill="#ccaf06"
   opacity="1"
   stroke="none"
   d="m 1428.1949,581.80817 c -3.3931,1.91188 -6.1044,2.51906 -10.8777,2.80061 -1.2203,-2.37169 -0.3779,-4.41777 0.9605,-8.04263 4.3796,-4.07144 8.2635,-6.56415 15.9098,-11.47154 -2.633,7.63901 -3.972,11.5239 -5.9926,16.71356 z"
   id="path1982"
   style="stroke-width:2.48842" />



<path
   fill="#d6c762"
   opacity="1"
   stroke="none"
   d="m 1140.5284,886.66666 c -1.3539,-8.9035 -1.6071,-19.35626 -1.5625,-32.05799 7.577,8.2015 6.6502,19.24462 1.5625,32.05799 z"
   id="path1990"
   style="stroke-width:2.48842" />














































































<path
   fill="#c6bd71"
   opacity="1"
   stroke="none"
   d="m 1278.315,994.5213 c 20.6179,15.5063 21.6662,35.1728 1.0905,56.417 6.4832,-17.868 7.8671,-36.0306 -1.0905,-56.417 z"
   id="path2148"
   style="stroke-width:2.48842" />
<path
   fill="#c6bd71"
   opacity="1"
   stroke="none"
   d="m 1268.0867,979.36122 c 3.6916,2.1946 7.3732,6.01631 10.6505,11.58981 -3.8235,-2.15299 -7.2417,-6.05777 -10.6505,-11.58981 z"
   id="path2150"
   style="stroke-width:2.48842" />




























<text
   xml:space="preserve"
   style="font-size:10.6667px;font-family:'Montserrat Light';-inkscape-font-specification:'Montserrat Light, ';fill:#767675;fill-opacity:1"
   x="755.98157"
   y="710.1037"
   id="text44226"><tspan
     sodipodi:role="line"
     id="tspan44224"
     x="755.98157"
     y="710.1037" /></text></svg>
