<?xml version="1.0" encoding="UTF-8" standalone="no"?>
<svg
   width="700pt"
   height="700pt"
   version="1.1"
   viewBox="0 0 700 700"
   id="svg4"
   sodipodi:docname="return-book.svg"
   inkscape:version="1.1.2 (0a00cf5339, 2022-02-04)"
   xmlns:inkscape="http://www.inkscape.org/namespaces/inkscape"
   xmlns:sodipodi="http://sodipodi.sourceforge.net/DTD/sodipodi-0.dtd"
   xmlns="http://www.w3.org/2000/svg"
   xmlns:svg="http://www.w3.org/2000/svg">
  <defs
     id="defs8" />
  <sodipodi:namedview
     id="namedview6"
     pagecolor="#ffffff"
     bordercolor="#000000"
     borderopacity="0.25"
     inkscape:pageshadow="2"
     inkscape:pageopacity="0.0"
     inkscape:pagecheckerboard="0"
     inkscape:document-units="pt"
     showgrid="false"
     inkscape:zoom="0.50464286"
     inkscape:cx="466.66667"
     inkscape:cy="465.67587"
     inkscape:window-width="1366"
     inkscape:window-height="740"
     inkscape:window-x="0"
     inkscape:window-y="0"
     inkscape:window-maximized="1"
     inkscape:current-layer="svg4" />
  <path
     d="m 601.46949,324.71148 c -5.3438,3.5234 -12.602,2.1484 -16.172,-3.2422 l -25.293,-37.941 v 194.81 c 0,32.176 -26.156,58.332 -58.332,58.332 h -23.332 c -6.4414,0 -11.668,-5.2266 -11.668,-11.668 0,-6.4414 5.2266,-11.668 11.668,-11.668 h 23.332 c 19.297,0 35,-15.703 35,-35 v -194.8 l -25.293,37.941 c -3.5703,5.3672 -10.852,6.7891 -16.172,3.2422 -5.3438,-3.5703 -6.8125,-10.828 -3.2422,-16.172 l 46.574,-69.859 c 0.28125,-0.44141 0.58203,-0.86328 0.93359,-1.2617 l 0.0234,-0.0234 c 0.39844,-0.44141 0.79297,-0.86328 1.2383,-1.2383 l 0.0234,-0.0234 c 2.0312,-1.7266 4.6211,-2.7773 7.4883,-2.8008 h 0.0469 c 0.043,0.004 0.043,0.004 0.0898,0.004 h 0.0469 c 2.8711,0.0234 5.4609,1.0742 7.4883,2.8008 l 0.0234,0.0234 c 0.44141,0.375 0.83984,0.79297 1.2383,1.2383 l 0.0234,0.0234 c 0.35156,0.39844 0.65234,0.81641 0.93359,1.2617 l 46.574,69.859 c 3.5703,5.3398 2.1211,12.598 -3.2422,16.168 z m -484.8,-184.64 c 0,0.32813 0,0.60547 0.0234,0.93359 0.25781,0.95703 0.39844,1.9844 0.39844,3.0117 v 0.42188 c 2.0547,10.828 11.668,19.039 23.148,19.039 l 291.43,-0.004 c 6.4414,0 11.668,5.2266 11.668,11.668 l -0.004,419.86 c 0,6.4414 -5.2266,11.668 -11.668,11.668 h -326.67 c -3.1016,0 -6.066399,-1.2383 -8.261699,-3.4062 -2.1875,-2.1719 -3.4023,-5.1836 -3.4023,-8.2617 l 0.42188,-448.75 c -0.28125,-2.0312 -0.42188,-4.082 -0.42188,-6.1836 0,-25.785 21.022999,-46.737998 46.901999,-46.737998 h 291.43 c 6.4375,0 11.664,5.2266 11.664,11.667998 0,6.4414 -5.2266,11.668 -11.664,11.668 h -291.43 c -12.996,0 -23.566,10.5 -23.566,23.402 z m 0,443.26 h 303.33 v -396.52 h -279.77 c -8.4219,0 -16.332,-2.2383 -23.191,-6.1367 z"
     id="path2" />
</svg>
