<?xml version="1.0" encoding="UTF-8" standalone="no"?>
<svg
   width="700pt"
   height="700pt"
   version="1.1"
   viewBox="0 0 700 700"
   id="svg8"
   sodipodi:docname="overdue-book.svg"
   inkscape:version="1.1.2 (0a00cf5339, 2022-02-04)"
   xmlns:inkscape="http://www.inkscape.org/namespaces/inkscape"
   xmlns:sodipodi="http://sodipodi.sourceforge.net/DTD/sodipodi-0.dtd"
   xmlns="http://www.w3.org/2000/svg"
   xmlns:svg="http://www.w3.org/2000/svg">
  <defs
     id="defs12" />
  <sodipodi:namedview
     id="namedview10"
     pagecolor="#ffffff"
     bordercolor="#000000"
     borderopacity="0.25"
     inkscape:pageshadow="2"
     inkscape:pageopacity="0.0"
     inkscape:pagecheckerboard="0"
     inkscape:document-units="pt"
     showgrid="false"
     inkscape:zoom="0.50464286"
     inkscape:cx="467.65746"
     inkscape:cy="466.66666"
     inkscape:window-width="1313"
     inkscape:window-height="679"
     inkscape:window-x="26"
     inkscape:window-y="23"
     inkscape:window-maximized="0"
     inkscape:current-layer="svg8" />
  <g
     fill-rule="evenodd"
     id="g6"
     transform="translate(0,82.5)">
    <path
       d="M 480.67,317.33 V 56 h -280 v 448 h 238.32 l 11.004,18.668 h -314.66 c -5.1523,0 -9.332,-4.1797 -9.332,-9.3359 v -466.66 c 0,-5.1562 4.1797,-9.3359 9.332,-9.3359 h 354.67 c 5.1562,0 9.332,4.1797 9.332,9.3359 v 270.66 z M 182,56 H 144.668 V 504 H 182 Z"
       id="path2" />
    <path
       d="m 384.84,381.8 80.324,136.27 c 1.6758,2.8438 4.7344,4.5938 8.0391,4.5938 h 33.602 c 3.3047,0 6.3633,-1.75 8.0391,-4.5977 l 80.27,-136.27 c 1.6445,-2.793 1.7227,-6.2422 0.20703,-9.1055 l -16.801,-31.734 c -1.6172,-3.0547 -4.793,-4.9648 -8.25,-4.9648 h -160.53 c -3.4531,0 -6.625,1.9062 -8.2422,4.9531 l -16.859,31.734 c -1.5234,2.8672 -1.4453,6.3203 0.20313,9.1172 z m 30.496,-27.137 h 149.33 l 11.578,22.211 -74.852,127.12 h -22.773 l -74.852,-127.12 z m 65.336,28 c 0,-5.1562 4.1758,-9.3359 9.332,-9.3359 5.1562,0 9.332,4.1797 9.332,9.3359 v 42.797 c 0,5.1562 -4.1758,9.332 -9.332,9.332 -5.1562,0 -9.332,-4.1758 -9.332,-9.332 z m 9.332,65.332 c 5.1562,0 9.332,4.1797 9.332,9.332 0,5.1562 -4.1758,9.3359 -9.332,9.3359 -5.1562,0 -9.332,-4.1797 -9.332,-9.3359 0,-5.1523 4.1758,-9.332 9.332,-9.332 z"
       id="path4" />
  </g>
</svg>
